<svg width="346" height="72" viewBox="0 0 346 72" fill="none" xmlns="http://www.w3.org/2000/svg">
<g clip-path="url(#clip0_43_1182)">
<path d="M4.23959 23.742C2.09316 21.6409 1.26558 19.4898 1.70001 16.1856C1.7864 15.5287 2.36341 13.7587 3.98044 11.9333C6.00173 9.65161 9.42236 9.08119 10.3034 9.13305C11.1845 9.18491 13.2057 8.83722 16.2636 11.4666C19.5806 14.3187 19.2688 16.6895 19.2178 18.8303C19.1764 20.5727 17.796 22.9505 17.1448 23.5346C15.6418 24.8829 15.8491 24.6771 14.1388 25.5052C10.2305 27.3973 5.94981 25.4161 4.23959 23.742Z" fill="#D61518"/>
<path d="M50.938 41.1287C49.2091 39.7796 49.044 36.5754 49.176 35.3207C49.2361 34.8623 49.4655 33.7367 50.5892 32.4627C51.9939 30.8702 53.7336 30.39 54.7733 30.4462C56.6909 30.5499 57.7274 30.8611 59.1254 32.137C60.9408 33.7939 61.2144 35.7562 61.1784 37.2763C61.1495 38.4924 60.35 39.6892 59.9538 40.1356C59.8697 40.3286 59.2983 40.9463 57.6847 41.8728C55.6677 43.031 52.9979 42.7361 50.938 41.1287Z" fill="#F4E929"/>
<path d="M29.0693 33.5577C27.0985 31.9984 27.0878 28.7959 27.2468 27.2903C27.319 26.7401 27.6243 25.1314 28.9139 23.5493C30.5398 21.5547 32.2827 20.749 34.4595 20.749C35.1976 20.749 37.7762 21.0602 39.5386 22.8233C41.9751 25.2608 42.0023 27.6476 41.9225 29.5647C41.8706 30.8092 41.0932 32.728 40.4713 33.3502C39.8493 33.9725 39.6939 34.2318 37.9838 35.0615C35.4289 36.3011 31.2978 35.3208 29.0693 33.5577Z" fill="#EB9C23"/>
<path fill-rule="evenodd" clip-rule="evenodd" d="M0.777452 47.2687C0.874446 50.2754 2.09784 53.9851 4.18518 57.021C6.27112 60.0549 9.32502 62.5589 13.1477 62.8607C19.8219 63.3876 23.9137 59.8628 27.1465 57.0779L27.2137 57.0201C27.8277 58.0841 28.7128 59.2426 29.7516 60.284C31.1483 61.6843 32.9109 62.9612 34.7908 63.477C39.3243 64.7209 45.8191 63.6106 50.3183 56.0448C51.3483 54.3127 52.1938 52.7662 52.7963 51.4812C53.3821 50.2318 53.7917 49.1213 53.8501 48.3039C53.9988 46.2231 52.3641 43.9211 49.0845 43.9211C48.0032 43.9211 47.173 44.4087 46.5753 44.9905C45.9899 45.5603 45.5958 46.2481 45.3446 46.7504C45.2187 47.0023 45.0808 47.3237 44.9168 47.706C44.3887 48.937 43.5897 50.7996 42.0465 53.0039C41.4799 53.8133 40.2779 55.3277 37.5516 55.1719C36.6368 55.1196 34.49 53.6918 34.5711 50.4453C34.5956 49.4647 34.8157 48.1251 35.0622 46.6247L35.0627 46.6218C35.0839 46.4926 35.1053 46.3622 35.1268 46.2308C35.3903 44.6209 35.6628 42.869 35.6628 41.4197C35.6628 40.5003 35.4281 39.5785 34.856 38.8251C34.2743 38.059 33.4021 37.5448 32.2812 37.358C31.3459 37.2021 30.2522 37.2272 29.2478 37.8262C28.2357 38.4299 27.4703 39.5226 27.0034 41.1778C26.0409 44.5902 23.8171 48.1935 22.4788 49.6347C21.9009 50.257 20.7726 51.4261 19.3216 52.4149C17.8594 53.4113 16.8357 54.2862 14.4405 54.0801C13.7187 54.0473 12.6634 53.5146 11.658 52.565C10.6722 51.634 9.90483 50.4601 9.6502 49.3969C9.51089 48.8152 9.25849 47.2425 9.21697 45.315C9.21697 43.6037 9.30463 43.4481 9.6502 40.596C9.98254 39.1757 10.4466 36.9138 10.832 35.5403L10.8403 35.5106L10.8404 35.5104C11.0284 34.8405 11.1984 34.2344 11.3219 33.7656C11.3844 33.5281 11.4374 33.3166 11.4753 33.1449C11.5057 33.0073 11.549 32.8017 11.5491 32.6296C11.5491 32.6293 11.5492 32.6253 11.5496 32.6163C11.55 32.6053 11.5508 32.5908 11.552 32.5713C11.5537 32.5426 11.5548 32.5255 11.556 32.5062C11.5574 32.4856 11.5589 32.4626 11.5614 32.4202C11.5688 32.2983 11.5768 32.1393 11.5759 31.959C11.5743 31.6026 11.5389 31.1352 11.3811 30.6536C11.2208 30.1638 10.9306 29.6508 10.4227 29.2371C9.91521 28.8238 9.24902 28.5573 8.41506 28.4637C6.85331 28.2882 5.72335 28.7094 4.86932 29.5333C4.13618 30.2405 3.64995 31.2165 3.22506 32.0694L3.22493 32.0697C3.19797 32.1238 3.17127 32.1774 3.14476 32.2304C2.8578 32.8043 2.5712 33.7973 2.30517 34.9375C2.03215 36.1075 1.76133 37.5214 1.52518 38.9959C1.05568 41.9273 0.710072 45.18 0.777452 47.2687ZM45.9203 47.6308C45.871 47.744 45.8183 47.8671 45.7616 47.9994L45.7616 47.9995C45.8182 47.8672 45.871 47.7441 45.9203 47.6308Z" fill="#88633D"/>
<path d="M282.15 43.7275C281.935 43.7275 281.827 43.835 281.827 44.0501V45.7918C281.827 46.4154 281.602 46.9423 281.15 47.3723C280.72 47.8024 280.193 48.0174 279.57 48.0174C278.946 48.0174 278.408 47.8024 277.957 47.3723C277.527 46.9423 277.312 46.4154 277.312 45.7918V42.3406C277.312 41.5665 277.581 40.9106 278.118 40.373C278.677 39.8139 279.344 39.5344 280.118 39.5344H281.182C281.268 39.5344 281.322 39.5021 281.344 39.4376C281.387 39.3731 281.387 39.3086 281.344 39.2441C281.172 38.9646 280.989 38.6743 280.795 38.3732C280.58 38.0292 280.473 37.6851 280.473 37.3411C280.473 37.169 280.494 36.9863 280.537 36.7927C280.688 36.2552 281.021 35.8681 281.537 35.6316C281.946 35.4595 282.354 35.3735 282.763 35.3735C282.978 35.3735 283.204 35.395 283.44 35.438C284.107 35.5886 284.634 35.9326 285.021 36.4702C285.386 36.9433 285.698 37.3948 285.956 37.8249C286.128 38.1259 286.15 38.4377 286.021 38.7603C285.913 39.0828 285.698 39.3194 285.375 39.4699C285.375 39.4914 285.375 39.5129 285.375 39.5344C285.375 39.5344 285.386 39.5344 285.408 39.5344H289.278C289.364 39.5344 289.429 39.5021 289.472 39.4376C289.515 39.3731 289.526 39.3086 289.504 39.2441C289.311 38.7925 289.085 38.3087 288.827 37.7926C288.676 37.4916 288.601 37.1905 288.601 36.8895C288.601 36.653 288.644 36.4057 288.73 36.1476C288.923 35.5886 289.3 35.2123 289.859 35.0187C290.203 34.8897 290.547 34.8252 290.891 34.8252C291.171 34.8252 291.461 34.8682 291.762 34.9542C292.407 35.1692 292.902 35.5563 293.246 36.1154C293.461 36.5024 293.665 36.8788 293.858 37.2443C293.966 37.4808 294.02 37.7066 294.02 37.9217C294.02 38.1367 293.977 38.3517 293.891 38.5668C293.697 38.9968 293.364 39.2979 292.891 39.4699C292.891 39.4699 292.891 39.4806 292.891 39.5021C292.891 39.5236 292.902 39.5344 292.923 39.5344H296.955C297.17 39.5344 297.331 39.4484 297.439 39.2764C297.869 38.5883 298.277 37.8787 298.664 37.1475C299.03 36.4379 299.557 35.9219 300.245 35.5993C300.675 35.3843 301.116 35.2768 301.567 35.2768C301.847 35.2768 302.126 35.3198 302.406 35.4058C303.051 35.5778 303.481 35.9756 303.696 36.5992C303.782 36.8357 303.825 37.0615 303.825 37.2766C303.825 37.6636 303.707 38.0292 303.47 38.3732C303.212 38.6958 302.976 38.9968 302.761 39.2764C302.718 39.3409 302.707 39.4054 302.729 39.4699C302.772 39.5129 302.825 39.5344 302.89 39.5344H303.761C304.535 39.5344 305.191 39.8139 305.728 40.373C306.287 40.9106 306.567 41.5665 306.567 42.3406V45.6628C306.567 46.3079 306.33 46.867 305.857 47.3401C305.406 47.7916 304.847 48.0174 304.18 48.0174C303.535 48.0174 302.976 47.7916 302.503 47.3401C302.051 46.867 301.825 46.3079 301.825 45.6628V44.0501C301.825 43.835 301.718 43.7275 301.503 43.7275H282.15ZM304.632 53.1459C305.234 53.1459 305.75 53.361 306.18 53.791C306.61 54.2211 306.825 54.7372 306.825 55.3393C306.825 55.9413 306.61 56.4574 306.18 56.8875C305.75 57.3176 305.234 57.5326 304.632 57.5326H294.697C294.482 57.5326 294.375 57.6401 294.375 57.8551V60.8548C294.375 62.059 294.203 62.9837 293.858 63.6287C293.536 64.2738 292.934 64.7684 292.052 65.1125C291.042 65.4995 289.665 65.7253 287.924 65.7898C287.859 65.7898 287.805 65.7898 287.762 65.7898C287.096 65.7898 286.483 65.5855 285.924 65.177C285.322 64.7254 284.87 64.1448 284.569 63.4352C284.483 63.2202 284.44 63.0052 284.44 62.7901C284.44 62.5106 284.526 62.231 284.698 61.9515C284.999 61.4784 285.418 61.2419 285.956 61.2419C285.978 61.2419 285.988 61.2419 285.988 61.2419C286.762 61.2634 287.633 61.2741 288.601 61.2741C288.923 61.2741 289.139 61.2311 289.246 61.1451C289.375 61.0591 289.44 60.9086 289.44 60.6936V57.8551C289.44 57.6401 289.332 57.5326 289.117 57.5326H279.247C278.645 57.5326 278.129 57.3176 277.699 56.8875C277.269 56.4574 277.054 55.9413 277.054 55.3393C277.054 54.7372 277.269 54.2211 277.699 53.791C278.129 53.361 278.645 53.1459 279.247 53.1459H289.246C289.375 53.1459 289.44 53.0814 289.44 52.9524C289.44 52.4578 289.612 52.0385 289.956 51.6945C290.321 51.3504 290.74 51.1784 291.214 51.1784H291.31C291.461 51.1784 291.59 51.1354 291.697 51.0494C292.127 50.7268 292.525 50.415 292.891 50.114C292.934 50.0925 292.945 50.0602 292.923 50.0172C292.902 49.9527 292.869 49.9204 292.826 49.9204H285.246C284.666 49.9204 284.171 49.7162 283.763 49.3076C283.376 48.899 283.182 48.4152 283.182 47.8561C283.182 47.2756 283.376 46.7917 283.763 46.4047C284.171 45.9961 284.666 45.7918 285.246 45.7918H297.277C297.342 45.7918 297.406 45.7811 297.471 45.7596C297.643 45.7166 297.804 45.6951 297.955 45.6951C298.385 45.6951 298.783 45.8348 299.148 46.1144L299.89 46.695C300.342 47.0605 300.567 47.5228 300.567 48.0819C300.567 48.5335 300.417 48.9206 300.116 49.2431C298.697 50.6408 297.234 51.8772 295.729 52.9524C295.686 52.9954 295.665 53.0384 295.665 53.0814C295.686 53.1244 295.729 53.1459 295.794 53.1459H304.632Z" fill="#D61518"/>
<path d="M257.228 55.044C257.228 54.829 257.12 54.7215 256.905 54.7215H253.325C253.11 54.7215 253.002 54.829 253.002 55.044V55.8181C253.002 56.0332 253.11 56.1407 253.325 56.1407H256.905C257.12 56.1407 257.228 56.0332 257.228 55.8181V55.044ZM265.775 56.1407C265.99 56.1407 266.098 56.0332 266.098 55.8181V55.044C266.098 54.829 265.99 54.7215 265.775 54.7215H262.098C261.883 54.7215 261.776 54.829 261.776 55.044V55.8181C261.776 56.0332 261.883 56.1407 262.098 56.1407H265.775ZM261.776 60.7209C261.776 60.9359 261.883 61.0434 262.098 61.0434H265.775C265.99 61.0434 266.098 60.9359 266.098 60.7209V59.8823C266.098 59.6672 265.99 59.5597 265.775 59.5597H262.098C261.883 59.5597 261.776 59.6672 261.776 59.8823V60.7209ZM253.002 60.7209C253.002 60.9359 253.11 61.0434 253.325 61.0434H256.905C257.12 61.0434 257.228 60.9359 257.228 60.7209V59.8823C257.228 59.6672 257.12 59.5597 256.905 59.5597H253.325C253.11 59.5597 253.002 59.6672 253.002 59.8823V60.7209ZM250.712 65.7849C250.089 65.7849 249.551 65.5591 249.1 65.1075C248.648 64.6775 248.422 64.1399 248.422 63.4948V53.8183C248.422 53.0227 248.691 52.3561 249.229 51.8186C249.788 51.281 250.454 51.0122 251.228 51.0122H268.13C268.904 51.0122 269.56 51.281 270.097 51.8186C270.656 52.3561 270.936 53.0227 270.936 53.8183V63.2368C270.936 63.9034 270.699 64.4732 270.226 64.9463C269.753 65.4193 269.183 65.6559 268.517 65.6559H266.872C266.657 65.6559 266.474 65.5806 266.324 65.4301C266.173 65.2796 266.098 65.0968 266.098 64.8818C266.098 64.8387 266.066 64.8172 266.001 64.8172H253.099C253.035 64.8172 253.002 64.8495 253.002 64.914C253.002 65.1505 252.916 65.3548 252.744 65.5268C252.572 65.6989 252.368 65.7849 252.131 65.7849H250.712ZM269.227 40.0133C269.227 39.9273 269.194 39.852 269.13 39.7875C269.065 39.723 268.99 39.6907 268.904 39.6907H267.033C266.818 39.6907 266.7 39.7983 266.678 40.0133C266.442 42.2066 265.98 44.0344 265.291 45.4966C265.27 45.5611 265.27 45.6256 265.291 45.6901C265.334 45.7546 265.399 45.7869 265.485 45.7869C266.281 45.8514 266.915 45.8837 267.388 45.8837C267.84 45.8837 268.184 45.7546 268.42 45.4966C268.807 45.0235 269.076 43.1958 269.227 40.0133ZM261.453 35.7879H271.226C271.979 35.7879 272.624 36.0674 273.162 36.6265C273.656 37.1426 273.903 37.7554 273.903 38.4651C273.903 40.6369 273.721 42.9485 273.355 45.3998C273.14 46.8406 272.828 47.819 272.42 48.335C271.796 49.0876 270.925 49.5607 269.807 49.7542C269.528 49.7972 269.184 49.8295 268.775 49.851C268.689 49.8725 268.614 49.8833 268.549 49.8833C267.861 49.8833 267.248 49.6467 266.711 49.1737C266.109 48.6361 265.668 47.9695 265.388 47.1739C265.302 46.9158 265.205 46.6685 265.098 46.432C265.076 46.3675 265.033 46.3352 264.969 46.3352C264.904 46.3352 264.851 46.3675 264.808 46.432C264.163 47.4641 263.356 48.378 262.388 49.1737C261.937 49.4747 261.464 49.6252 260.969 49.6252C260.776 49.6252 260.571 49.6037 260.356 49.5607C259.647 49.3672 259.023 48.9586 258.486 48.335C258.421 48.2705 258.367 48.206 258.324 48.1415C258.217 48.0125 258.088 47.991 257.937 48.077L257.034 48.5286C256.755 48.6576 256.475 48.6683 256.196 48.5608C255.938 48.4533 255.755 48.2598 255.647 47.9802C255.604 47.8942 255.54 47.862 255.454 47.8835C254.185 48.249 251.411 49.0124 247.132 50.1736C246.917 50.2381 246.702 50.2703 246.487 50.2703C246.1 50.2703 245.724 50.1628 245.358 49.9478C244.799 49.6252 244.433 49.1522 244.261 48.5286C244.218 48.335 244.197 48.1415 244.197 47.948C244.197 47.5394 244.304 47.1524 244.519 46.7868C244.863 46.2492 245.347 45.9052 245.971 45.7546C246.014 45.7546 246.057 45.7546 246.1 45.7546C246.272 45.7116 246.358 45.5934 246.358 45.3998L245.842 38.4651C245.842 38.4005 245.842 38.3468 245.842 38.3038C245.842 37.6802 246.078 37.1749 246.551 36.7878C246.938 36.4653 247.358 36.304 247.809 36.304C247.981 36.304 248.164 36.3255 248.358 36.3685L248.874 36.5298C249.089 36.5728 249.293 36.562 249.487 36.4975C250.863 36.1104 252.217 35.6481 253.551 35.1105C253.959 34.96 254.368 34.8848 254.776 34.8848C255.034 34.8848 255.282 34.9063 255.518 34.9493C256.185 35.0998 256.744 35.4331 257.195 35.9492C257.454 36.2502 257.583 36.5835 257.583 36.9491C257.583 37.0996 257.561 37.2501 257.518 37.4006C257.367 37.9382 257.023 38.293 256.486 38.4651C254.723 39.0241 252.873 39.508 250.938 39.9165C250.745 39.981 250.648 40.1208 250.648 40.3358L250.938 44.3677C250.938 44.4537 250.97 44.529 251.035 44.5935C251.121 44.6365 251.207 44.6472 251.293 44.6257L253.486 44.0774C253.68 44.0344 253.733 43.9376 253.647 43.7871C253.583 43.7011 253.529 43.6151 253.486 43.5291C253.293 43.2065 253.196 42.8732 253.196 42.5292C253.196 42.3356 253.228 42.1421 253.293 41.9486C253.465 41.411 253.809 41.0132 254.325 40.7551C254.669 40.5831 255.024 40.4971 255.389 40.4971C255.604 40.4971 255.819 40.5294 256.034 40.5939C256.636 40.7659 257.099 41.1099 257.421 41.626C258.303 42.9807 259.012 44.2279 259.55 45.3676C259.572 45.4321 259.625 45.4751 259.711 45.4966C259.797 45.4966 259.862 45.4751 259.905 45.4321C261.152 44.2064 261.926 42.3894 262.227 39.981C262.227 39.9165 262.206 39.852 262.163 39.7875C262.12 39.723 262.055 39.6907 261.969 39.6907H261.453C260.916 39.6907 260.453 39.508 260.066 39.1424C259.701 38.7553 259.518 38.293 259.518 37.7554C259.518 37.2179 259.701 36.7555 260.066 36.3685C260.453 35.9814 260.916 35.7879 261.453 35.7879Z" fill="#D61518"/>
<path d="M223.514 41.1961C223.514 39.5973 224.314 38.7979 225.913 38.7979C227.511 38.7979 228.311 39.5973 228.311 41.1961V46.9944H238.693C240.272 46.9944 241.061 47.7837 241.061 49.3623C241.061 50.9611 240.272 51.7605 238.693 51.7605H228.311V61.8392C228.311 63.438 227.511 64.2374 225.913 64.2374C224.314 64.2374 223.514 63.438 223.514 61.8392V41.1961Z" fill="#D61518"/>
<path d="M199.536 42.384C199.536 40.7649 200.346 39.9554 201.965 39.9554H212.013C213.571 39.8947 214.674 40.4917 215.322 41.7465C215.99 42.981 215.919 44.4078 215.109 46.0269C214.178 48.334 213.187 50.2972 212.134 51.9162C213.045 53.1103 213.996 54.3246 214.988 55.5591C215.98 56.7734 216.951 57.8865 217.902 58.8984C218.833 60.1937 218.803 61.3675 217.811 62.4199C216.637 63.108 215.626 62.9663 214.776 61.9949C214.108 61.4282 213.288 60.5377 212.317 59.3235C211.345 58.1091 210.384 56.8645 209.433 55.5895C208.198 57.1074 206.933 58.433 205.638 59.5663C204.363 60.6794 203.068 61.6306 201.752 62.4199C200.416 63.2092 199.324 63.0068 198.474 61.8128C197.866 60.2139 198.15 59.0401 199.324 58.2913C200.477 57.7449 201.752 56.824 203.149 55.5288C204.565 54.2335 205.891 52.7662 207.125 51.1269C208.36 49.4876 209.362 47.7572 210.131 45.9358C210.353 45.2072 210.121 44.8429 209.433 44.8429H201.965C200.346 44.8429 199.536 44.0334 199.536 42.4143V42.384Z" fill="#D61518"/>
<path d="M181.534 51.2136C181.534 49.635 182.323 48.8457 183.902 48.8457H193.191C194.77 48.8457 195.559 49.635 195.559 51.2136C195.559 52.8124 194.77 53.6118 193.191 53.6118H183.902C182.323 53.6118 181.534 52.8225 181.534 51.2439V51.2136Z" fill="#D61518"/>
<path d="M158.725 42.8391C158.725 41.2605 159.514 40.4712 161.093 40.4712H171.93C175.573 40.4712 177.395 42.2926 177.395 45.9355V57.2285C177.395 60.8714 175.573 62.6929 171.93 62.6929H161.093C159.514 62.6929 158.725 61.9036 158.725 60.325C158.725 58.7262 159.514 57.9267 161.093 57.9267H170.625C171.839 57.9267 172.446 57.3196 172.446 56.1053V47.0588C172.446 45.8445 171.839 45.2373 170.625 45.2373H161.093C159.514 45.2373 158.725 44.448 158.725 42.8694V42.8391Z" fill="#D61518"/>
<path d="M145.696 39.8907C145.696 39.2026 146.04 38.8586 146.728 38.8586C147.436 38.8586 147.79 39.2026 147.79 39.8907V42.1979C147.79 42.886 147.446 43.23 146.758 43.23C146.05 43.23 145.696 42.886 145.696 42.1979V39.8907ZM148.974 39.8907C148.974 39.2026 149.318 38.8586 150.007 38.8586C150.715 38.8586 151.069 39.2026 151.069 39.8907V42.1979C151.069 42.886 150.725 43.23 150.037 43.23C149.329 43.23 148.974 42.886 148.974 42.1979V39.8907ZM137.955 41.1961C137.955 39.5973 138.754 38.7979 140.353 38.7979C141.952 38.7979 142.751 39.5973 142.751 41.1961V46.9944H153.133C154.712 46.9944 155.501 47.7837 155.501 49.3623C155.501 50.9611 154.712 51.7605 153.133 51.7605H142.751V61.8392C142.751 63.438 141.952 64.2374 140.353 64.2374C138.754 64.2374 137.955 63.438 137.955 61.8392V41.1961Z" fill="#D61518"/>
<path d="M133.419 58.7748C132.266 60.151 130.768 61.3248 128.927 62.2963C127.449 62.9439 126.164 62.9034 125.071 62.1748C123.978 61.4463 123.412 60.3129 123.371 58.7748V41.896C123.371 40.3579 124.14 39.5889 125.678 39.5889C127.216 39.5889 127.985 40.3579 127.985 41.896V56.073C128.006 56.7004 128.35 56.8825 129.018 56.6194C129.22 56.5587 129.837 56.1843 130.869 55.4962C131.942 54.6867 132.913 54.6867 133.784 55.4962C134.452 56.6902 134.33 57.7831 133.419 58.7748ZM114.112 60.3534C114.841 58.1272 115.367 56.1337 115.691 54.373C116.035 52.592 116.207 50.6491 116.207 48.5443V42.1996C116.207 40.6817 116.966 39.9228 118.484 39.9228C120.022 39.9228 120.791 40.6817 120.791 42.1996V48.5443C120.77 51.742 120.518 54.4337 120.032 56.6194C119.566 58.8051 119.05 60.576 118.484 61.932C117.836 63.2677 116.784 63.7129 115.326 63.2677C113.93 62.7617 113.525 61.7903 114.112 60.3534Z" fill="#D61518"/>
<path d="M97.1382 51.2136C97.1382 49.635 97.9275 48.8457 99.5061 48.8457H108.795C110.374 48.8457 111.163 49.635 111.163 51.2136C111.163 52.8124 110.374 53.6118 108.795 53.6118H99.5061C97.9275 53.6118 97.1382 52.8225 97.1382 51.2439V51.2136Z" fill="#D61518"/>
<path d="M94.4824 38.7983C94.4824 38.1102 94.8264 37.7661 95.5145 37.7661C96.2229 37.7661 96.577 38.1102 96.577 38.7983V41.1054C96.577 41.7935 96.233 42.1376 95.5449 42.1376C94.8365 42.1376 94.4824 41.7935 94.4824 41.1054V38.7983ZM91.2038 38.7983C91.2038 38.1102 91.5478 37.7661 92.2359 37.7661C92.9443 37.7661 93.2984 38.1102 93.2984 38.7983V41.1054C93.2984 41.7935 92.9544 42.1376 92.2663 42.1376C92.2258 42.1376 92.1853 42.1376 92.1448 42.1376C92.8734 43.0281 93.2377 44.293 93.2377 45.9323V57.2253C93.2377 60.8682 91.4163 62.6896 87.7734 62.6896H76.9358C75.3572 62.6896 74.5679 61.9003 74.5679 60.3217C74.5679 58.7229 75.3572 57.9235 76.9358 57.9235H86.468C87.6823 57.9235 88.2894 57.3163 88.2894 56.102V47.0555C88.2894 45.8412 87.6823 45.2341 86.468 45.2341H76.9358C75.3572 45.2341 74.5679 44.4448 74.5679 42.8662V42.8358C74.5679 41.2572 75.3572 40.4679 76.9358 40.4679H87.7734C89.1901 40.4679 90.3335 40.7513 91.2038 41.3179C91.2038 41.237 91.2038 41.1662 91.2038 41.1054V38.7983Z" fill="#D61518"/>
<path d="M332.007 64.797C331.62 64.797 331.287 64.6626 331.007 64.3938C330.739 64.1143 330.604 63.781 330.604 63.3939V56.6043C330.604 56.271 330.717 55.9861 330.943 55.7495C331.179 55.513 331.464 55.3947 331.798 55.3947H331.911C332.222 55.3947 332.497 55.4969 332.733 55.7011C332.97 55.9054 333.115 56.1581 333.169 56.4591L333.185 56.5559C333.185 56.5774 333.195 56.5882 333.217 56.5882C333.249 56.5882 333.271 56.5828 333.281 56.572C333.733 56.1205 334.174 55.7764 334.604 55.5399C335.034 55.2926 335.539 55.1689 336.12 55.1689C337.292 55.1689 338.125 55.6366 338.62 56.572C338.641 56.615 338.668 56.6419 338.7 56.6527C338.743 56.6527 338.781 56.6365 338.813 56.6043C339.265 56.1527 339.711 55.8033 340.152 55.556C340.592 55.298 341.087 55.1689 341.635 55.1689C342.625 55.1689 343.361 55.5022 343.845 56.1688C344.329 56.8354 344.571 57.7762 344.571 58.9911V63.3939C344.571 63.781 344.431 64.1143 344.151 64.3938C343.882 64.6626 343.555 64.797 343.167 64.797H343.038C342.651 64.797 342.318 64.6626 342.039 64.3938C341.77 64.1143 341.635 63.781 341.635 63.3939V59.3459C341.635 58.7224 341.549 58.2923 341.377 58.0558C341.216 57.8085 340.942 57.6848 340.555 57.6848C340.136 57.6848 339.673 57.9267 339.168 58.4106C339.093 58.4858 339.055 58.5772 339.055 58.6847V63.3939C339.055 63.781 338.915 64.1143 338.636 64.3938C338.367 64.6626 338.039 64.797 337.652 64.797H337.507C337.12 64.797 336.786 64.6626 336.507 64.3938C336.238 64.1143 336.104 63.781 336.104 63.3939V59.3459C336.104 58.7224 336.018 58.2923 335.846 58.0558C335.684 57.8085 335.41 57.6848 335.023 57.6848C334.604 57.6848 334.142 57.9267 333.636 58.4106C333.561 58.4858 333.523 58.5772 333.523 58.6847V63.3939C333.523 63.781 333.384 64.1143 333.104 64.3938C332.835 64.6626 332.507 64.797 332.12 64.797H332.007Z" fill="#D61518"/>
<path d="M324.839 65.0228C324.236 65.0228 323.656 64.9099 323.097 64.6841C322.548 64.4583 322.059 64.1412 321.629 63.7326C321.199 63.324 320.855 62.808 320.597 62.1844C320.35 61.55 320.226 60.8565 320.226 60.1039C320.226 59.3513 320.35 58.6578 320.597 58.0235C320.855 57.3892 321.199 56.8677 321.629 56.4591C322.059 56.0506 322.548 55.7334 323.097 55.5076C323.656 55.2818 324.236 55.1689 324.839 55.1689C325.43 55.1689 326 55.2818 326.548 55.5076C327.096 55.7334 327.586 56.0506 328.016 56.4591C328.446 56.8677 328.784 57.3892 329.032 58.0235C329.29 58.6578 329.419 59.3513 329.419 60.1039C329.419 60.8565 329.29 61.55 329.032 62.1844C328.784 62.808 328.446 63.324 328.016 63.7326C327.586 64.1412 327.096 64.4583 326.548 64.6841C326 64.9099 325.43 65.0228 324.839 65.0228ZM324.839 62.6521C325.365 62.6521 325.758 62.4317 326.016 61.9908C326.285 61.5393 326.419 60.9103 326.419 60.1039C326.419 59.2976 326.285 58.6686 326.016 58.217C325.758 57.7655 325.365 57.5397 324.839 57.5397C324.301 57.5397 323.898 57.7655 323.629 58.217C323.36 58.6686 323.226 59.2976 323.226 60.1039C323.226 60.9103 323.36 61.5393 323.629 61.9908C323.898 62.4317 324.301 62.6521 324.839 62.6521Z" fill="#D61518"/>
<path d="M316.712 65.0228C315.346 65.0228 314.223 64.582 313.341 63.7003C312.47 62.8187 312.035 61.6199 312.035 60.1039C312.035 59.104 312.266 58.2224 312.728 57.459C313.19 56.6957 313.793 56.1258 314.534 55.7495C315.276 55.3625 316.088 55.1689 316.97 55.1689C317.615 55.1689 318.206 55.2926 318.744 55.5399C319.034 55.6796 319.201 55.9108 319.244 56.2334C319.254 56.2979 319.26 56.3624 319.26 56.4269C319.26 56.6849 319.184 56.9161 319.034 57.1204L318.969 57.1849C318.765 57.4752 318.421 57.6203 317.937 57.6203C317.776 57.6203 317.599 57.6042 317.405 57.5719C317.319 57.5504 317.228 57.5397 317.131 57.5397C316.497 57.5397 315.986 57.7708 315.599 58.2332C315.223 58.6955 315.034 59.3191 315.034 60.1039C315.034 60.8673 315.223 61.4855 315.599 61.9586C315.975 62.4209 316.454 62.6521 317.034 62.6521C317.26 62.6521 317.48 62.6144 317.695 62.5392C317.867 62.4747 318.039 62.4424 318.211 62.4424C318.33 62.4424 318.448 62.4532 318.566 62.4747C318.867 62.5499 319.088 62.7112 319.227 62.9585C319.357 63.152 319.421 63.3617 319.421 63.5875C319.421 63.6735 319.41 63.7595 319.389 63.8455C319.324 64.168 319.152 64.3992 318.873 64.539C318.206 64.8615 317.486 65.0228 316.712 65.0228Z" fill="#D61518"/>
<path d="M308.812 65.0222C308.307 65.0222 307.888 64.8502 307.554 64.5062C307.232 64.1514 307.071 63.7159 307.071 63.1998C307.071 62.6838 307.232 62.2537 307.554 61.9096C307.888 61.5548 308.307 61.3774 308.812 61.3774C309.318 61.3774 309.737 61.5548 310.07 61.9096C310.404 62.2537 310.57 62.6838 310.57 63.1998C310.57 63.7159 310.404 64.1514 310.07 64.5062C309.737 64.8502 309.318 65.0222 308.812 65.0222Z" fill="#D61518"/>
<path d="M76.6524 15.5731H76.5696C75.9762 15.5731 75.6312 15.5869 75.2172 15.6559V14.4967C75.576 14.5657 75.9072 14.5795 76.5834 14.5795H86.409C87.0852 14.5795 87.3888 14.5657 87.7752 14.4967V15.6559C87.3612 15.5869 87.0162 15.5731 86.3952 15.5731H81.4134V20.7205C81.4134 21.3691 81.4272 21.7003 81.4962 22.0729H80.199C80.268 21.7417 80.2818 21.3829 80.2818 20.7343V20.5135C78.7224 20.7895 78.5982 20.8171 77.2872 20.9965C76.266 21.1483 75.9624 21.1897 75.4656 21.2863L75.2034 20.0857C75.3138 20.0857 75.4104 20.0857 75.4518 20.0857C75.6864 20.0857 76.0728 20.0581 76.6524 20.0167V15.5731ZM77.7978 15.5731V16.3459H80.2818V15.5731H77.7978ZM77.7978 17.2153V18.0157H80.2818V17.2153H77.7978ZM77.7978 18.8851V19.9063C78.5844 19.8235 79.2606 19.7269 80.2818 19.5613V18.8851H77.7978ZM86.4642 16.2631L87.0714 16.9255C86.9748 17.0635 86.9472 17.1325 86.8368 17.3257C86.2986 18.3607 85.857 19.0093 85.2222 19.6855C85.9398 20.2099 86.6298 20.5273 87.7614 20.8447C87.4854 21.2035 87.3198 21.5071 87.1266 21.9487C85.8432 21.4519 85.1946 21.0931 84.4218 20.4445C83.7042 21.0379 83.097 21.4243 82.1724 21.8521C81.9654 21.3967 81.786 21.1345 81.4824 20.8309C82.3656 20.4997 82.89 20.2099 83.6076 19.6579C83.097 19.1059 82.7934 18.6643 82.2552 17.7397L83.2626 17.2981H82.8348C82.4208 17.2981 82.2 17.3119 81.8274 17.3533V16.2631C82.1448 16.3045 82.4484 16.3183 83.0004 16.3183H85.4154C85.8984 16.3183 86.2434 16.3045 86.4642 16.2631ZM85.581 17.2981H83.2764C83.649 18.0709 83.8698 18.4021 84.3942 18.9679C84.9048 18.4435 85.1946 18.0433 85.581 17.2981ZM86.2296 10.9639V12.8545C86.2296 13.3651 86.2434 13.6825 86.2848 13.9999C85.9122 13.9723 85.4568 13.9585 84.9462 13.9585H78.2118C77.5908 13.9585 77.2182 13.9723 76.7628 14.0137C76.8042 13.6687 76.818 13.3375 76.818 12.8545V10.9639C76.818 10.4671 76.8042 10.1359 76.7628 9.80468C77.232 9.84608 77.6184 9.85988 78.2532 9.85988H84.8082C85.443 9.85988 85.8294 9.84608 86.2848 9.80468C86.2434 10.1221 86.2296 10.4533 86.2296 10.9639ZM78.0048 10.7845V11.4883H85.0428V10.7845H78.0048ZM78.0048 12.3577V13.0753H85.0428V12.3577H78.0048ZM97.5456 14.9107L94.9788 14.9935V18.1123C95.9862 17.8915 96.552 17.7397 97.6146 17.4085V18.5539C95.9586 19.0921 95.0478 19.3267 93.2814 19.6855C93.0606 19.7269 92.9226 19.7683 92.7294 19.8235L92.5224 18.5125C92.9226 18.4987 92.964 18.4849 93.7644 18.3607V11.9437C93.7644 11.2675 93.7506 11.0191 93.7092 10.6879C96.0276 10.6879 99.0222 10.0669 100.209 9.33548L101.175 10.4671C99.381 11.0467 99.3672 11.0467 98.5116 11.2399C98.5254 12.2749 98.5392 12.7855 98.622 13.7377L100.278 13.6825C100.996 13.6687 101.216 13.6411 101.589 13.5721L101.617 14.8417C101.12 14.8141 101.106 14.8141 100.692 14.8141C100.485 14.8141 100.361 14.8141 100.278 14.8279L98.7324 14.8693C98.8704 15.9181 99.1188 16.7599 99.519 17.6155C99.9054 18.4159 100.444 19.0783 100.72 19.0783C100.968 19.0783 101.12 18.3607 101.189 16.9255C101.492 17.2429 101.796 17.4775 102.155 17.6983C101.893 19.7959 101.548 20.4721 100.775 20.4721C100.043 20.4721 99.0636 19.4509 98.3874 17.9881C97.9734 17.0911 97.725 16.2079 97.5456 14.9107ZM94.9788 13.8481L97.4214 13.7791C97.38 13.1029 97.3524 12.7855 97.2972 11.4607C96.3864 11.6125 96.0138 11.6539 94.9788 11.7505V13.8481ZM90.687 20.4169V16.0837C90.687 15.4765 90.7008 14.8969 90.7422 14.5243C90.3834 15.1591 90.0384 15.6421 89.5002 16.2631C89.307 15.7111 89.1966 15.4765 88.893 14.9383C90.411 13.3789 91.515 11.2399 91.8324 9.26648L93.171 9.62528C92.6604 11.1571 92.4258 11.7367 91.8876 12.7993V20.4307C91.8876 21.0931 91.9152 21.5623 91.9566 22.0453H90.6042C90.6732 21.4795 90.687 21.0931 90.687 20.4169ZM93.2676 21.5485V20.2927C93.5712 20.3341 93.861 20.3479 94.3716 20.3479H98.3322C98.9394 20.3479 99.381 20.3203 99.6984 20.2789V21.5485C99.243 21.4933 98.8842 21.4657 98.3322 21.4657H94.6062C93.9714 21.4657 93.6954 21.4795 93.2676 21.5485ZM109.814 11.3779H108.875C108.241 11.3779 107.771 11.4055 107.33 11.4607V10.1497C107.716 10.2049 108.185 10.2325 108.875 10.2325H114.865C115.582 10.2325 116.079 10.2049 116.452 10.1497V11.4607C116.051 11.4055 115.527 11.3779 114.906 11.3779H113.333V13.4479H114.782C115.32 13.4479 115.706 13.4341 116.01 13.3927C115.969 13.7515 115.955 14.0689 115.955 14.6485V20.3341C115.955 21.0103 115.982 21.4657 116.038 21.9901H114.754V21.1621H108.448V21.9763H107.178C107.233 21.5209 107.261 21.0241 107.261 20.4859V14.6899C107.261 14.1931 107.233 13.7653 107.192 13.3927C107.564 13.4341 107.882 13.4479 108.448 13.4479H109.814V11.3779ZM109.814 14.5519H108.448V20.0443H109.814V14.5519ZM110.932 20.0443H112.215V14.5519H110.932V20.0443ZM110.932 13.4479H112.215V11.3779H110.932V13.4479ZM113.333 20.0443H114.754V14.5519H113.333V20.0443ZM104.929 20.4721V16.1527C104.929 15.5317 104.942 15.2695 104.97 14.5933C104.694 15.1453 104.377 15.6559 103.921 16.2355C103.756 15.7111 103.618 15.4075 103.355 14.9521C104.266 13.9309 104.942 12.7579 105.522 11.1709C105.839 10.3429 105.964 9.87368 106.046 9.26648L107.302 9.74948C107.192 10.0393 107.164 10.1497 107.04 10.5085C106.75 11.4055 106.695 11.5435 106.129 12.8407V20.4859C106.129 21.2311 106.143 21.6727 106.198 22.1005H104.846C104.901 21.5899 104.929 21.1483 104.929 20.4721ZM123.421 20.6929V17.8777C123.421 17.4913 123.421 17.3809 123.407 17.1325C123.131 17.2567 123.076 17.2843 122.758 17.4361C122.51 16.9807 122.386 16.8013 121.999 16.4011C123.6 15.8077 124.538 15.3109 125.67 14.4553C125.146 13.9585 124.87 13.6549 124.304 12.9097C123.904 13.4617 123.6 13.8067 123.131 14.2621C122.882 13.8895 122.662 13.6411 122.303 13.3789C122.427 13.2685 122.468 13.2409 122.565 13.1581C122.399 13.1305 122.096 13.1167 121.82 13.1167H121.351C121.627 13.7653 122.206 14.5795 122.979 15.3523C122.703 15.6007 122.482 15.8767 122.261 16.2079C121.792 15.5731 121.696 15.4489 121.254 14.6347C121.295 15.3385 121.323 15.9457 121.323 16.6495V20.4445C121.323 21.1621 121.351 21.7003 121.406 22.1005H120.053C120.109 21.6865 120.136 21.1483 120.136 20.4445V17.1877C120.136 16.8979 120.15 16.4977 120.219 15.2419C119.846 16.5667 119.819 16.6633 119.488 17.4361C119.267 17.9743 119.184 18.1399 118.825 18.7057C118.577 18.2227 118.384 17.9743 118.066 17.6569C118.936 16.4287 119.667 14.7313 120.012 13.1167H119.405C118.963 13.1167 118.687 13.1305 118.397 13.1719V11.9713C118.604 12.0127 118.949 12.0265 119.405 12.0265H120.122V10.7983C120.122 10.0531 120.109 9.69428 120.053 9.37688H121.392C121.337 9.74948 121.323 10.1497 121.323 10.7983V12.0265H121.806C122.179 12.0265 122.413 12.0127 122.648 11.9713V13.0891C123.669 12.0955 124.635 10.4671 124.856 9.33548L126.139 9.57008C126.098 9.65288 126.084 9.68048 126.043 9.77708C125.932 10.0393 125.877 10.1773 125.698 10.5499H127.809C128.485 10.5499 128.789 10.5361 129.051 10.4809L129.769 11.2399C129.686 11.3641 129.658 11.4055 129.562 11.5711C128.816 12.8683 128.237 13.6411 127.436 14.4553C128.582 15.2143 129.644 15.7111 131.149 16.1803C130.845 16.5943 130.652 16.9255 130.486 17.3809C129.907 17.1325 129.907 17.1325 129.7 17.0497C129.686 17.2981 129.686 17.4361 129.686 17.8639V20.6791C129.686 21.3553 129.7 21.7555 129.755 22.0729H128.458V21.3277H124.649V22.0729H123.352C123.393 21.7417 123.421 21.3553 123.421 20.6929ZM124.456 16.8565H128.623C128.885 16.8565 128.982 16.8565 129.244 16.8565C128.195 16.3735 127.478 15.9319 126.567 15.2281C125.739 15.8905 125.146 16.2631 123.973 16.8565C124.166 16.8565 124.221 16.8565 124.456 16.8565ZM128.113 11.6677H125.132C125.049 11.8057 125.021 11.8333 124.952 11.9575C125.56 12.8131 125.891 13.1995 126.526 13.7515C127.271 13.0339 127.63 12.5647 128.113 11.6677ZM124.649 17.9605V20.2237H128.458V17.9605H124.649ZM139.442 15.6559V14.3725H137.966C137.331 14.3725 136.931 14.3863 136.544 14.4277C136.586 14.0413 136.6 13.6825 136.6 13.1305V11.2123C136.6 10.6879 136.586 10.3705 136.544 9.97028C136.931 10.0255 137.303 10.0393 138.062 10.0393H142.327C143.044 10.0393 143.458 10.0255 143.845 9.97028C143.803 10.3843 143.789 10.6741 143.789 11.2675V13.1581C143.789 13.7239 143.803 14.0551 143.845 14.4139C143.679 14.4001 143.665 14.4001 143.444 14.4001C143.403 14.4001 143.293 14.3863 143.127 14.3863C142.879 14.3725 142.658 14.3725 142.451 14.3725H140.657V15.6559H143.237C143.748 15.6559 144.259 15.6283 144.686 15.5731V16.8841C144.19 16.8289 143.693 16.8013 143.265 16.8013H141.154C141.747 17.5741 142.092 17.9191 142.754 18.4849C143.541 19.1335 144.162 19.5337 145.087 19.9477C144.742 20.3755 144.562 20.6515 144.272 21.1759C143.334 20.5687 142.906 20.2651 142.368 19.7821C141.595 19.1059 141.195 18.6367 140.615 17.7121C140.643 18.1951 140.657 18.8161 140.657 19.2025V20.7343C140.657 21.2035 140.684 21.6313 140.74 22.0315H139.346C139.401 21.6175 139.429 21.1759 139.429 20.7205V19.1887C139.429 18.9817 139.442 18.4849 139.484 17.6983C138.918 18.6781 138.49 19.1887 137.593 19.9615C136.958 20.5273 136.517 20.8447 135.841 21.2449C135.523 20.6653 135.482 20.5963 135.026 20.1133C135.965 19.6303 136.71 19.1197 137.524 18.3883C138.104 17.8639 138.352 17.5741 138.918 16.8013H137.027C136.475 16.8013 135.965 16.8289 135.565 16.8841V15.5731C135.979 15.6283 136.434 15.6559 137.027 15.6559H139.442ZM137.8 11.1571V13.2547H142.561V11.1571H137.8ZM133.633 20.4031V16.2769C133.633 15.7663 133.646 15.4489 133.674 14.7037C133.301 15.3385 133.039 15.6835 132.46 16.3183C132.156 15.5593 132.142 15.5317 131.825 15.0211C132.929 13.9309 133.702 12.7165 134.309 11.1709C134.571 10.4809 134.778 9.73568 134.833 9.28028L136.144 9.69428C136.061 9.90128 136.02 10.0255 135.882 10.4533C135.661 11.1709 135.33 11.9713 134.833 12.9511V20.4169C134.833 21.0103 134.861 21.5071 134.902 22.0315H133.55C133.605 21.4795 133.633 21.0655 133.633 20.4031ZM155.161 20.2789V11.1709H153.463C152.842 11.1709 152.373 11.1985 151.945 11.2537V9.94268C152.345 9.99788 152.815 10.0255 153.463 10.0255H157.658C158.293 10.0255 158.749 9.99788 159.163 9.94268V11.2537C158.735 11.1985 158.293 11.1709 157.658 11.1709H156.361V14.7865H157.617C158.252 14.7865 158.569 14.7727 158.969 14.7037V16.0147C158.583 15.9595 158.21 15.9319 157.617 15.9319H156.361V20.2789H157.907C158.486 20.2789 158.956 20.2513 159.383 20.1961V21.5347C158.956 21.4795 158.5 21.4519 157.879 21.4519H153.063C152.387 21.4519 151.959 21.4795 151.586 21.5209V20.2237C151.849 20.2651 152.028 20.2789 152.539 20.2789V14.8417C152.539 14.2069 152.511 13.8067 152.456 13.3651H153.794C153.725 13.7791 153.712 14.1517 153.712 14.8417V20.2789H155.161ZM147.088 10.9225V9.77708C147.46 9.83228 147.667 9.84608 148.205 9.84608H150.179C150.717 9.84608 150.924 9.83228 151.297 9.77708V10.9225C150.965 10.8811 150.662 10.8673 150.179 10.8673H148.205C147.709 10.8673 147.433 10.8811 147.088 10.9225ZM146.632 12.9235V11.7091C146.963 11.7643 147.226 11.7781 147.736 11.7781H150.538C151.09 11.7781 151.324 11.7643 151.642 11.7229V12.9235C151.338 12.8821 151.145 12.8683 150.607 12.8683H147.736C147.253 12.8683 146.95 12.8821 146.632 12.9235ZM147.143 14.8693V13.7653C147.405 13.7929 147.626 13.8067 148.081 13.8067H150.303C150.772 13.8067 150.965 13.7929 151.228 13.7653V14.8693C150.924 14.8417 150.731 14.8279 150.303 14.8279H148.081C147.626 14.8279 147.419 14.8417 147.143 14.8693ZM147.143 16.7875V15.6835C147.405 15.7111 147.626 15.7249 148.081 15.7249H150.303C150.772 15.7249 150.979 15.7111 151.228 15.6835V16.7875C150.883 16.7461 150.758 16.7461 150.289 16.7461H148.081C147.64 16.7461 147.405 16.7599 147.143 16.7875ZM148.233 22.0591H147.046C147.101 21.6451 147.129 21.2311 147.129 20.7205V18.7471C147.129 18.2917 147.115 17.9881 147.06 17.6293C147.391 17.6707 147.736 17.6845 148.15 17.6845H150.234C150.8 17.6845 150.952 17.6845 151.2 17.6431C151.172 17.9053 151.159 18.1813 151.159 18.6643V20.7757C151.159 21.3277 151.172 21.6037 151.2 21.8659H150.068V21.3691H148.233V22.0591ZM148.233 18.6781V20.3617H150.068V18.6781H148.233ZM167.967 11.9851C167.719 14.0413 167.222 16.0561 166.559 17.5465C165.759 19.3681 164.917 20.1685 163.841 20.1685C162.378 20.1685 161.302 18.6367 161.302 16.5391C161.302 15.0625 161.826 13.6687 162.792 12.6061C163.924 11.3641 165.511 10.7155 167.429 10.7155C170.644 10.7155 172.756 12.6889 172.756 15.6697C172.756 17.9743 171.541 19.8235 169.471 20.6791C168.823 20.9413 168.284 21.0931 167.346 21.2725C167.139 20.6377 167.015 20.4031 166.642 19.9201C167.719 19.7545 168.34 19.6027 168.933 19.3543C170.41 18.7195 171.334 17.2705 171.334 15.6007C171.334 14.1655 170.658 13.0201 169.444 12.3715C168.974 12.1231 168.602 12.0265 167.967 11.9851ZM166.559 11.9989C165.8 12.0817 165.262 12.2611 164.669 12.6613C163.413 13.5031 162.64 14.9797 162.64 16.5529C162.64 17.7535 163.165 18.7057 163.827 18.7057C164.324 18.7057 164.834 18.0985 165.373 16.8427C165.911 15.5731 166.38 13.6411 166.559 11.9989ZM181.284 17.5879H181.049C180.511 17.5879 180.277 17.6017 179.725 17.6293C179.752 17.2705 179.766 16.8013 179.766 16.2217V11.1847C179.766 10.4671 179.752 10.1911 179.725 9.79088C180.056 9.83228 180.373 9.84608 181.063 9.84608H185.134C185.783 9.84608 186.1 9.83228 186.459 9.79088C186.418 10.1497 186.404 10.5085 186.404 11.1847V16.1665C186.404 16.8013 186.418 17.2153 186.459 17.6431C186.017 17.5879 185.852 17.5879 185.134 17.5879H184.61V20.4997C184.61 20.7205 184.679 20.7481 185.465 20.7481C185.866 20.7481 186.086 20.7067 186.169 20.5963C186.266 20.4721 186.335 19.7821 186.349 18.9127C186.721 19.1335 187.052 19.2715 187.453 19.3957C187.328 20.8723 187.232 21.2863 186.928 21.5485C186.652 21.7969 186.224 21.8797 185.203 21.8797C183.699 21.8797 183.395 21.7003 183.395 20.8309V17.5879H182.485C182.485 17.6431 182.485 17.6431 182.471 17.7673C182.278 19.0783 181.808 20.0305 180.953 20.8309C180.29 21.4519 179.614 21.8245 178.441 22.2109C178.248 21.8107 178.082 21.5761 177.682 21.1345C178.938 20.8309 179.766 20.3893 180.401 19.6855C180.939 19.1059 181.229 18.4159 181.284 17.5879ZM180.953 10.9087V12.0955H185.203V10.9087H180.953ZM180.953 13.1305V14.2759H185.203V13.1305H180.953ZM180.953 15.3109V16.5529H185.203V15.3109H180.953ZM176.495 11.2675H175.999C175.46 11.2675 175.24 11.2813 174.839 11.3365V10.0807C175.184 10.1497 175.502 10.1635 176.054 10.1635H178.096C178.621 10.1635 178.938 10.1359 179.283 10.0807V11.3227C178.924 11.2813 178.634 11.2675 178.165 11.2675H177.696V14.1931H178.193C178.607 14.1931 178.8 14.1793 179.09 14.1379V15.3247C178.759 15.2833 178.524 15.2695 178.193 15.2695H177.696V18.1399C178.179 17.9329 178.496 17.7811 179.311 17.3809L179.324 18.5677C178.138 19.2025 177.172 19.6303 175.709 20.1547C175.391 20.2651 175.212 20.3479 174.991 20.4445L174.646 19.1059C175.046 19.0369 175.64 18.8713 176.495 18.5815V15.2695H175.93C175.557 15.2695 175.295 15.2833 174.991 15.3385V14.1241C175.309 14.1793 175.529 14.1931 175.943 14.1931H176.495V11.2675ZM195.291 15.0349V19.9615C195.291 20.2513 195.36 20.3479 195.636 20.4307C195.94 20.5135 196.547 20.5549 197.734 20.5549C199.472 20.5549 199.997 20.4721 200.204 20.1823C200.356 19.9615 200.438 19.3681 200.452 18.4435C200.908 18.6781 201.101 18.7471 201.694 18.8575C201.529 21.5485 201.294 21.7141 197.485 21.7141C194.67 21.7141 194.077 21.4657 194.077 20.3065V15.4351C193.911 15.4903 193.787 15.5317 193.704 15.5593C193.249 15.6973 193.124 15.7525 192.821 15.8905L192.517 14.6071C192.904 14.5657 193.331 14.4691 193.801 14.3311L194.077 14.2345V12.2335C194.077 11.5849 194.049 11.1985 193.994 10.7845H195.374C195.319 11.2123 195.291 11.6263 195.291 12.1783V13.8481L196.892 13.3375V10.8673C196.892 10.2739 196.878 9.98408 196.809 9.52868H198.175C198.12 9.97028 198.092 10.3981 198.092 10.8949V12.9511L200.135 12.3025C200.618 12.1507 200.88 12.0541 201.253 11.8885C201.239 12.0817 201.239 12.0817 201.211 12.5233C201.197 12.6475 201.197 12.9373 201.17 13.3513C201.101 15.5041 200.977 16.6771 200.783 17.2153C200.576 17.7811 200.19 18.0019 199.403 18.0019C199.224 18.0019 199.058 17.9881 198.713 17.9743C198.658 17.4775 198.575 17.1463 198.41 16.7737C198.713 16.8427 199.086 16.8841 199.376 16.8841C199.666 16.8841 199.735 16.8151 199.79 16.3735C199.873 15.8905 199.914 15.0763 199.969 13.5031L198.092 14.1103V17.7121C198.092 18.2641 198.12 18.6505 198.175 19.0645H196.809C196.878 18.6367 196.892 18.2917 196.892 17.6707V14.5105L195.291 15.0349ZM190.64 13.0063V11.1157C190.64 10.4119 190.613 9.97028 190.558 9.55628H191.91C191.841 9.99788 191.827 10.3843 191.827 11.1295V13.0063H192.172C192.697 13.0063 192.904 12.9925 193.166 12.9373V14.1793C192.821 14.1379 192.586 14.1241 192.131 14.1241H191.827V18.1123C192.365 17.8639 192.559 17.7673 193.249 17.4085L193.304 18.6229C191.993 19.3267 191.344 19.6165 189.495 20.3479C189.357 20.4031 189.302 20.4307 189.178 20.4859L188.915 19.1611C189.412 19.0783 189.702 18.9817 190.64 18.6091V14.1241H190.24C189.702 14.1241 189.467 14.1379 189.136 14.1931V12.9373C189.454 12.9925 189.702 13.0063 190.24 13.0063H190.64ZM205.544 11.3503L205.641 14.0689C206.731 13.7515 207.049 13.6549 207.808 13.3651C207.532 12.8959 207.407 12.7027 206.98 12.1369L207.946 11.7229C208.663 12.6475 209.022 13.2271 209.546 14.3173C210.14 13.9171 210.499 13.5583 210.775 13.0615C211.092 12.5095 211.202 12.0955 211.271 11.2399H210.761C210.236 11.2399 209.933 11.2537 209.657 11.3089V10.0669C209.974 10.1083 210.388 10.1359 211.009 10.1359H214.404C214.928 10.1359 215.301 10.1221 215.577 10.0945C215.549 10.2877 215.549 10.2877 215.48 11.3365C215.398 12.7165 215.246 13.8757 215.094 14.4277C214.901 15.1867 214.473 15.4351 213.41 15.4351C213.052 15.4351 212.72 15.4075 212.141 15.3523C212.113 14.9935 212.044 14.6209 211.92 14.2207C212.541 14.3587 212.914 14.4139 213.3 14.4139C213.673 14.4139 213.838 14.3311 213.921 14.0965C214.1 13.5859 214.211 12.6751 214.252 11.2399H212.431C212.306 12.4267 212.113 13.0753 211.63 13.8481C211.175 14.6071 210.568 15.1591 209.602 15.7249C209.45 15.4075 209.298 15.1867 209.022 14.8555L208.594 15.0625C208.442 14.6761 208.387 14.5519 208.277 14.2897C207.007 14.8141 206.262 15.0625 204.164 15.6697C204.068 15.6835 203.902 15.7387 203.75 15.7939L203.461 14.5243C203.833 14.4967 204.054 14.4691 204.468 14.3725L204.358 11.3917C204.33 10.9777 204.316 10.7155 204.275 10.3981C205.531 10.2877 206.897 9.98408 207.904 9.62528C208.18 9.52868 208.318 9.45968 208.525 9.32168L209.408 10.3705C209.257 10.4257 209.215 10.4257 208.967 10.5085C208.787 10.5499 208.787 10.5499 208.015 10.7845C207.145 11.0467 206.51 11.1847 205.544 11.3503ZM206.207 15.9733H213.245C213.838 15.9733 214.183 15.9595 214.57 15.9181C214.528 16.2493 214.514 16.6219 214.514 17.2567V20.6101C214.514 21.1483 214.528 21.5623 214.583 21.9901H213.286V21.3829H206.179V21.9901H204.91C204.965 21.5761 204.992 21.1207 204.992 20.5963V17.2567C204.992 16.6495 204.979 16.3045 204.937 15.9181C205.337 15.9595 205.627 15.9733 206.207 15.9733ZM206.193 16.9531V18.1399H209.063V16.9531H206.193ZM210.236 16.9531V18.1399H213.3V16.9531H210.236ZM206.193 19.1197V20.3893H209.063V19.1197H206.193ZM210.236 19.1197V20.3893H213.3V19.1197H210.236ZM219.441 11.5849H220.214C219.855 10.9363 219.648 10.6327 219.068 9.94268L220.241 9.58388C220.752 10.2187 221.056 10.6879 221.552 11.5849H223.236C223.029 10.9777 222.739 10.3981 222.325 9.74948L223.54 9.41828C224.064 10.3843 224.23 10.7707 224.519 11.5849H225.83C226.424 10.8397 226.714 10.3567 227.072 9.45968L228.314 9.85988C227.956 10.4947 227.514 11.1433 227.169 11.5849H227.969C228.853 11.5849 229.115 11.5711 229.625 11.5297C229.584 11.8747 229.57 12.1645 229.57 12.6751V13.8481C229.57 14.2069 229.598 14.5381 229.639 14.8693H228.37V12.6475H219.082V14.8693H217.813C217.854 14.5657 217.882 14.2345 217.882 13.8481V12.6751C217.882 12.1645 217.868 11.8747 217.826 11.5297C218.42 11.5849 218.599 11.5849 219.441 11.5849ZM224.423 18.1675V20.7757C224.423 21.7693 224.105 21.9763 222.601 21.9763C222.27 21.9763 221.566 21.9487 221.083 21.9211C220.959 21.3001 220.89 21.0931 220.697 20.6929C221.401 20.7895 221.994 20.8309 222.449 20.8309C223.07 20.8309 223.167 20.7895 223.167 20.4997V18.1675H219.262C218.572 18.1675 218.075 18.1951 217.675 18.2503V16.9669C218.102 17.0221 218.627 17.0497 219.248 17.0497H223.167V16.8979C223.167 16.6219 223.153 16.3597 223.126 16.1113H223.719C224.478 15.7387 225.03 15.3661 225.706 14.8141H221.373C220.849 14.8141 220.407 14.8417 220.021 14.8831V13.6963C220.421 13.7515 220.849 13.7653 221.401 13.7653H226.134C226.645 13.7653 226.921 13.7515 227.169 13.7101L227.831 14.4277C227.638 14.6071 227.5 14.7037 227.459 14.7451C226.396 15.6559 225.596 16.2079 224.423 16.8565V17.0497H228.232C228.866 17.0497 229.432 17.0221 229.832 16.9669V18.2503C229.432 18.1951 228.908 18.1675 228.218 18.1675H224.423ZM238.292 12.7855V18.6229H241.783C242.694 18.6229 242.984 18.6091 243.508 18.5263V20.0029C243.025 19.9477 242.653 19.9339 241.811 19.9339H233.558C232.717 19.9339 232.344 19.9477 231.861 20.0029V18.5263C232.385 18.6091 232.675 18.6229 233.586 18.6229H236.829V12.7855H234.607C233.752 12.7855 233.393 12.7993 232.91 12.8545V11.3779C233.42 11.4607 233.738 11.4745 234.635 11.4745H240.734C241.618 11.4745 241.949 11.4607 242.459 11.3779V12.8545C241.976 12.7993 241.604 12.7855 240.762 12.7855H238.292ZM244.97 16.4701V14.8555C245.481 14.9245 246.074 14.9521 247.096 14.9521H254.561C255.748 14.9521 256.079 14.9383 256.618 14.8693V16.4701C256.01 16.4149 255.569 16.4011 254.548 16.4011H247.109C245.95 16.4011 245.536 16.4149 244.97 16.4701ZM260.109 11.4331L260.854 10.2739C262.207 10.8121 263.242 11.3227 264.428 12.0403L263.669 13.3099C262.552 12.5233 261.241 11.8333 260.109 11.4331ZM259.019 14.7727L259.792 13.5997C261.158 14.1517 262.207 14.6899 263.393 15.4489L262.662 16.7461C261.599 15.9595 260.385 15.2971 259.019 14.7727ZM259.667 21.4105L259.267 19.8373C260.261 19.8235 261.724 19.5061 263.145 18.9541C264.815 18.3193 266.098 17.3533 267.188 15.9043C267.961 14.8969 268.403 14.0551 268.817 12.8269C269.3 13.3375 269.479 13.4893 270.031 13.8619C269.327 15.5179 268.637 16.6081 267.63 17.6845C266.153 19.2439 264.401 20.2099 261.806 20.9137C261.558 20.9827 261.034 21.1069 260.219 21.2725C259.957 21.3277 259.888 21.3415 259.667 21.4105ZM267.354 10.7155L268.237 10.2463C268.803 10.8535 269.079 11.2537 269.521 12.0817L268.637 12.5785C268.237 11.8195 267.878 11.2813 267.354 10.7155ZM268.789 9.98408L269.645 9.54248C270.183 10.1083 270.528 10.5913 270.914 11.2951L270.031 11.7919C269.659 11.0881 269.3 10.5637 268.789 9.98408ZM278.031 15.3109V19.8787H280.75C281.481 19.8787 281.702 19.8649 282.171 19.7959V21.1345C281.799 21.0793 281.412 21.0655 280.75 21.0655H274.098C273.381 21.0655 273.105 21.0793 272.691 21.1207V19.7821C273.174 19.8649 273.477 19.8787 274.098 19.8787H276.693V15.3109H274.94C274.388 15.3109 273.988 15.3247 273.546 15.3799V14.0413C274.002 14.1103 274.319 14.1379 274.926 14.1379H279.908C280.502 14.1379 280.874 14.1103 281.302 14.0413V15.3661C280.916 15.3247 280.612 15.3109 279.908 15.3109H278.031ZM285.497 12.0265L286.449 10.9225C288.023 11.9023 288.892 12.5647 289.927 13.5583L288.933 14.7865C287.871 13.6549 286.753 12.7579 285.497 12.0265ZM285.828 21.0793L285.401 19.4785C286.518 19.4371 288.188 19.0093 289.458 18.4435C291.183 17.6845 292.48 16.6357 293.57 15.0901C294.191 14.1793 294.591 13.4341 295.019 12.3025C295.475 12.8683 295.654 13.0339 296.22 13.4341C295.074 15.9319 293.777 17.5327 291.914 18.7885C290.52 19.7407 288.809 20.4169 286.698 20.8585C286.173 20.9689 286.118 20.9827 285.828 21.0793ZM300.953 21.4933H299.325C299.394 20.8999 299.408 20.5549 299.408 19.7269V11.5159C299.408 10.5637 299.394 10.2463 299.325 9.85988H300.953C300.898 10.3015 300.87 10.7707 300.87 11.5435V13.8757C302.844 14.5657 304.776 15.4765 307.08 16.7875L306.28 18.1537C305.659 17.7259 305.3 17.5051 304.569 17.1049C303.52 16.5391 302.016 15.7939 301.271 15.4765C301.036 15.3799 301.036 15.3799 300.829 15.2419C300.829 15.4351 300.829 15.4351 300.857 15.7801C300.857 15.9043 300.87 16.3321 300.87 16.4701V19.7269C300.87 20.4583 300.898 20.9827 300.953 21.4933Z" fill="#333333"/>
</g>
<defs>
<clipPath id="clip0_43_1182">
<rect width="345.19" height="72" fill="white" transform="translate(0.768188)"/>
</clipPath>
</defs>
</svg>
