<svg width="24" height="24" viewBox="0 0 24 24" fill="none" xmlns="http://www.w3.org/2000/svg">
<g clip-path="url(#clip0_302_4434)">
<path d="M18.5895 0H5.4105C2.42236 0 0 2.42236 0 5.4105V18.5895C0 21.5776 2.42236 24 5.4105 24H18.5895C21.5776 24 24 21.5776 24 18.5895V5.4105C24 2.42236 21.5776 0 18.5895 0Z" fill="#666666"/>
<path d="M19.9996 10.869C19.9996 7.28849 16.4101 4.37549 11.9978 4.37549C7.58559 4.37549 3.99609 7.28849 3.99609 10.869C3.99609 14.079 6.84309 16.767 10.6883 17.2755C10.9486 17.3317 11.3033 17.4472 11.3933 17.67C11.4743 17.8725 11.4458 18.189 11.4196 18.3937C11.4196 18.3937 11.3258 18.9585 11.3056 19.0785C11.2703 19.281 11.1451 19.8697 11.9986 19.5097C12.8528 19.1497 16.6066 16.7962 18.2851 14.8642C19.4446 13.5922 20.0003 12.3022 20.0003 10.869H19.9996Z" fill="white"/>
<path d="M17.3368 12.9372H15.089C15.0043 12.9372 14.936 12.8689 14.936 12.7842V12.7819V9.29591V9.29216C14.936 9.20741 15.0043 9.13916 15.089 9.13916H17.3368C17.4208 9.13916 17.4898 9.20816 17.4898 9.29216V9.85991C17.4898 9.94466 17.4215 10.0129 17.3368 10.0129H15.809V10.6024H17.3368C17.4208 10.6024 17.4898 10.6714 17.4898 10.7554V11.3232C17.4898 11.4079 17.4215 11.4762 17.3368 11.4762H15.809V12.0657H17.3368C17.4208 12.0657 17.4898 12.1347 17.4898 12.2187V12.7864C17.4898 12.8712 17.4215 12.9394 17.3368 12.9394V12.9372Z" fill="#666666"/>
<path d="M9.02162 12.9369C9.10562 12.9369 9.17462 12.8687 9.17462 12.7839V12.2162C9.17462 12.1322 9.10562 12.0632 9.02162 12.0632H7.49387V9.29118C7.49387 9.20718 7.42487 9.13818 7.34087 9.13818H6.77312C6.68837 9.13818 6.62012 9.20643 6.62012 9.29118V12.7809V12.7839C6.62012 12.8687 6.68837 12.9369 6.77312 12.9369H9.02087H9.02162Z" fill="#666666"/>
<path d="M10.3748 9.13916H9.80779C9.72329 9.13916 9.65479 9.20766 9.65479 9.29216V12.7842C9.65479 12.8687 9.72329 12.9372 9.80779 12.9372H10.3748C10.4593 12.9372 10.5278 12.8687 10.5278 12.7842V9.29216C10.5278 9.20766 10.4593 9.13916 10.3748 9.13916Z" fill="#666666"/>
<path d="M14.238 9.13916H13.6702C13.5855 9.13916 13.5172 9.20741 13.5172 9.29216V11.3659L11.9197 9.20816C11.916 9.20291 11.9115 9.19766 11.9077 9.19241C11.9077 9.19241 11.9077 9.19241 11.907 9.19166C11.904 9.18866 11.901 9.18491 11.898 9.18191C11.8972 9.18116 11.8957 9.18041 11.895 9.17966C11.892 9.17741 11.8897 9.17516 11.8867 9.17291C11.8852 9.17216 11.8837 9.17066 11.8822 9.16991C11.88 9.16766 11.877 9.16616 11.874 9.16466C11.8725 9.16391 11.871 9.16241 11.8695 9.16166C11.8665 9.16016 11.8642 9.15866 11.8612 9.15716C11.8597 9.15641 11.8582 9.15566 11.8567 9.15491C11.8537 9.15341 11.8507 9.15191 11.8477 9.15116C11.8462 9.15116 11.8447 9.14966 11.8425 9.14966C11.8395 9.14891 11.8365 9.14741 11.8335 9.14666C11.832 9.14666 11.8297 9.14591 11.8282 9.14516C11.8252 9.14516 11.8222 9.14366 11.8192 9.14291C11.817 9.14291 11.8147 9.14291 11.8125 9.14216C11.8095 9.14216 11.8072 9.14141 11.8042 9.14141C11.8012 9.14141 11.799 9.14141 11.796 9.14141C11.7945 9.14141 11.7922 9.14141 11.7907 9.14141H11.2267C11.1427 9.14141 11.0737 9.20966 11.0737 9.29441V12.7864C11.0737 12.8704 11.142 12.9394 11.2267 12.9394H11.7945C11.8792 12.9394 11.9475 12.8712 11.9475 12.7864V10.7127L13.5472 12.8734C13.5585 12.8892 13.572 12.9019 13.587 12.9117C13.587 12.9117 13.5885 12.9124 13.5885 12.9132C13.5915 12.9154 13.5945 12.9169 13.5982 12.9192C13.5997 12.9199 13.6012 12.9207 13.6027 12.9214C13.605 12.9229 13.608 12.9237 13.6102 12.9252C13.6125 12.9267 13.6155 12.9274 13.6177 12.9282C13.6192 12.9282 13.6207 12.9297 13.6222 12.9297C13.626 12.9312 13.629 12.9319 13.6327 12.9327C13.6327 12.9327 13.6342 12.9327 13.635 12.9327C13.6477 12.9357 13.6612 12.9379 13.6747 12.9379H14.2387C14.3227 12.9379 14.3917 12.8697 14.3917 12.7849V9.29291C14.3917 9.20891 14.3235 9.13991 14.2387 9.13991L14.238 9.13916Z" fill="#666666"/>
</g>
<defs>
<clipPath id="clip0_302_4434">
<rect width="24" height="24" fill="white"/>
</clipPath>
</defs>
</svg>
